<svg width="1440" height="559" viewBox="0 0 1440 559" fill="none" xmlns="http://www.w3.org/2000/svg">
<rect width="1440" height="559" fill="#C0C0C0"/>
<path d="M426.482 137.32H427.712V148H426.482V137.32ZM433.739 140.275C435.549 140.275 436.454 141.27 436.454 143.26V148H435.239V143.32C435.239 142.62 435.099 142.11 434.819 141.79C434.539 141.46 434.099 141.295 433.499 141.295C432.799 141.295 432.239 141.51 431.819 141.94C431.399 142.37 431.189 142.95 431.189 143.68V148H429.974V142.57C429.974 141.79 429.934 141.085 429.854 140.455H431.009L431.129 141.805C431.359 141.315 431.704 140.94 432.164 140.68C432.624 140.41 433.149 140.275 433.739 140.275ZM438.524 140.455H439.739V148H438.524V140.455ZM439.889 137.26V138.64H438.404V137.26H439.889ZM445.038 148.105C444.308 148.105 443.668 147.945 443.118 147.625C442.578 147.305 442.158 146.855 441.858 146.275C441.568 145.685 441.423 145 441.423 144.22C441.423 143.44 441.573 142.755 441.873 142.165C442.173 141.565 442.598 141.1 443.148 140.77C443.708 140.44 444.358 140.275 445.098 140.275C445.608 140.275 446.098 140.365 446.568 140.545C447.048 140.715 447.443 140.955 447.753 141.265L447.348 142.165C446.968 141.865 446.598 141.645 446.238 141.505C445.888 141.365 445.528 141.295 445.158 141.295C444.388 141.295 443.783 141.555 443.343 142.075C442.903 142.585 442.683 143.3 442.683 144.22C442.683 145.13 442.898 145.84 443.328 146.35C443.768 146.85 444.378 147.1 445.158 147.1C445.528 147.1 445.888 147.03 446.238 146.89C446.598 146.75 446.968 146.53 447.348 146.23L447.753 147.13C447.433 147.43 447.028 147.67 446.538 147.85C446.058 148.02 445.558 148.105 445.038 148.105ZM449.075 140.455H450.29V148H449.075V140.455ZM450.44 137.26V138.64H448.955V137.26H450.44ZM455.544 148.105C454.834 148.105 454.209 147.945 453.669 147.625C453.129 147.305 452.709 146.85 452.409 146.26C452.119 145.67 451.974 144.98 451.974 144.19C451.974 143.4 452.119 142.71 452.409 142.12C452.709 141.53 453.129 141.075 453.669 140.755C454.209 140.435 454.834 140.275 455.544 140.275C456.254 140.275 456.879 140.435 457.419 140.755C457.959 141.075 458.374 141.53 458.664 142.12C458.964 142.71 459.114 143.4 459.114 144.19C459.114 144.98 458.964 145.67 458.664 146.26C458.374 146.85 457.959 147.305 457.419 147.625C456.879 147.945 456.254 148.105 455.544 148.105ZM455.544 147.1C456.294 147.1 456.869 146.855 457.269 146.365C457.669 145.865 457.869 145.14 457.869 144.19C457.869 143.27 457.664 142.56 457.254 142.06C456.844 141.55 456.274 141.295 455.544 141.295C454.804 141.295 454.229 141.55 453.819 142.06C453.409 142.56 453.204 143.27 453.204 144.19C453.204 145.14 453.404 145.865 453.804 146.365C454.214 146.855 454.794 147.1 455.544 147.1Z" fill="black"/>
<path d="M510.001 137.32V148H509.041L502.591 139.405V148H501.436V137.32H502.381L508.831 145.915V137.32H510.001ZM515.372 148.105C514.662 148.105 514.037 147.945 513.497 147.625C512.957 147.305 512.537 146.85 512.237 146.26C511.947 145.67 511.802 144.98 511.802 144.19C511.802 143.4 511.947 142.71 512.237 142.12C512.537 141.53 512.957 141.075 513.497 140.755C514.037 140.435 514.662 140.275 515.372 140.275C516.082 140.275 516.707 140.435 517.247 140.755C517.787 141.075 518.202 141.53 518.492 142.12C518.792 142.71 518.942 143.4 518.942 144.19C518.942 144.98 518.792 145.67 518.492 146.26C518.202 146.85 517.787 147.305 517.247 147.625C516.707 147.945 516.082 148.105 515.372 148.105ZM515.372 147.1C516.122 147.1 516.697 146.855 517.097 146.365C517.497 145.865 517.697 145.14 517.697 144.19C517.697 143.27 517.492 142.56 517.082 142.06C516.672 141.55 516.102 141.295 515.372 141.295C514.632 141.295 514.057 141.55 513.647 142.06C513.237 142.56 513.032 143.27 513.032 144.19C513.032 145.14 513.232 145.865 513.632 146.365C514.042 146.855 514.622 147.1 515.372 147.1ZM523.161 148.105C521.891 148.105 520.886 147.78 520.146 147.13L520.551 146.23C520.961 146.55 521.376 146.78 521.796 146.92C522.216 147.06 522.686 147.13 523.206 147.13C523.776 147.13 524.206 147.035 524.496 146.845C524.796 146.645 524.946 146.36 524.946 145.99C524.946 145.69 524.846 145.45 524.646 145.27C524.446 145.09 524.116 144.95 523.656 144.85L522.381 144.55C521.751 144.41 521.261 144.16 520.911 143.8C520.571 143.44 520.401 143.01 520.401 142.51C520.401 141.85 520.666 141.315 521.196 140.905C521.726 140.485 522.426 140.275 523.296 140.275C523.826 140.275 524.326 140.36 524.796 140.53C525.266 140.7 525.661 140.945 525.981 141.265L525.576 142.15C524.866 141.56 524.106 141.265 523.296 141.265C522.756 141.265 522.336 141.37 522.036 141.58C521.746 141.78 521.601 142.065 521.601 142.435C521.601 142.745 521.691 142.99 521.871 143.17C522.061 143.35 522.361 143.49 522.771 143.59L524.046 143.905C524.746 144.065 525.266 144.315 525.606 144.655C525.946 144.985 526.116 145.42 526.116 145.96C526.116 146.61 525.851 147.13 525.321 147.52C524.791 147.91 524.071 148.105 523.161 148.105ZM530.947 148.105C530.237 148.105 529.612 147.945 529.072 147.625C528.532 147.305 528.112 146.85 527.812 146.26C527.522 145.67 527.377 144.98 527.377 144.19C527.377 143.4 527.522 142.71 527.812 142.12C528.112 141.53 528.532 141.075 529.072 140.755C529.612 140.435 530.237 140.275 530.947 140.275C531.657 140.275 532.282 140.435 532.822 140.755C533.362 141.075 533.777 141.53 534.067 142.12C534.367 142.71 534.517 143.4 534.517 144.19C534.517 144.98 534.367 145.67 534.067 146.26C533.777 146.85 533.362 147.305 532.822 147.625C532.282 147.945 531.657 148.105 530.947 148.105ZM530.947 147.1C531.697 147.1 532.272 146.855 532.672 146.365C533.072 145.865 533.272 145.14 533.272 144.19C533.272 143.27 533.067 142.56 532.657 142.06C532.247 141.55 531.677 141.295 530.947 141.295C530.207 141.295 529.632 141.55 529.222 142.06C528.812 142.56 528.607 143.27 528.607 144.19C528.607 145.14 528.807 145.865 529.207 146.365C529.617 146.855 530.197 147.1 530.947 147.1ZM537.792 141.415V145.54C537.792 146.1 537.907 146.495 538.137 146.725C538.367 146.945 538.692 147.055 539.112 147.055C539.392 147.055 539.662 147.01 539.922 146.92V147.955C539.612 148.055 539.262 148.105 538.872 148.105C538.152 148.105 537.587 147.905 537.177 147.505C536.777 147.095 536.577 146.495 536.577 145.705V141.415H535.107V140.455H536.577V138.52L537.792 138.085V140.455H539.952V141.415H537.792ZM544.701 140.275C544.951 140.275 545.181 140.305 545.391 140.365L545.361 141.475C545.131 141.395 544.866 141.355 544.566 141.355C543.836 141.355 543.291 141.585 542.931 142.045C542.581 142.495 542.406 143.045 542.406 143.695V148H541.191V142.57C541.191 141.79 541.151 141.085 541.071 140.455H542.226L542.346 141.85C542.536 141.34 542.841 140.95 543.261 140.68C543.681 140.41 544.161 140.275 544.701 140.275ZM549.374 148.105C548.664 148.105 548.039 147.945 547.499 147.625C546.959 147.305 546.539 146.85 546.239 146.26C545.949 145.67 545.804 144.98 545.804 144.19C545.804 143.4 545.949 142.71 546.239 142.12C546.539 141.53 546.959 141.075 547.499 140.755C548.039 140.435 548.664 140.275 549.374 140.275C550.084 140.275 550.709 140.435 551.249 140.755C551.789 141.075 552.204 141.53 552.494 142.12C552.794 142.71 552.944 143.4 552.944 144.19C552.944 144.98 552.794 145.67 552.494 146.26C552.204 146.85 551.789 147.305 551.249 147.625C550.709 147.945 550.084 148.105 549.374 148.105ZM549.374 147.1C550.124 147.1 550.699 146.855 551.099 146.365C551.499 145.865 551.699 145.14 551.699 144.19C551.699 143.27 551.494 142.56 551.084 142.06C550.674 141.55 550.104 141.295 549.374 141.295C548.634 141.295 548.059 141.55 547.649 142.06C547.239 142.56 547.034 143.27 547.034 144.19C547.034 145.14 547.234 145.865 547.634 146.365C548.044 146.855 548.624 147.1 549.374 147.1ZM557.163 148.105C555.893 148.105 554.888 147.78 554.148 147.13L554.553 146.23C554.963 146.55 555.378 146.78 555.798 146.92C556.218 147.06 556.688 147.13 557.208 147.13C557.778 147.13 558.208 147.035 558.498 146.845C558.798 146.645 558.948 146.36 558.948 145.99C558.948 145.69 558.848 145.45 558.648 145.27C558.448 145.09 558.118 144.95 557.658 144.85L556.383 144.55C555.753 144.41 555.263 144.16 554.913 143.8C554.573 143.44 554.403 143.01 554.403 142.51C554.403 141.85 554.668 141.315 555.198 140.905C555.728 140.485 556.428 140.275 557.298 140.275C557.828 140.275 558.328 140.36 558.798 140.53C559.268 140.7 559.663 140.945 559.983 141.265L559.578 142.15C558.868 141.56 558.108 141.265 557.298 141.265C556.758 141.265 556.338 141.37 556.038 141.58C555.748 141.78 555.603 142.065 555.603 142.435C555.603 142.745 555.693 142.99 555.873 143.17C556.063 143.35 556.363 143.49 556.773 143.59L558.048 143.905C558.748 144.065 559.268 144.315 559.608 144.655C559.948 144.985 560.118 145.42 560.118 145.96C560.118 146.61 559.853 147.13 559.323 147.52C558.793 147.91 558.073 148.105 557.163 148.105Z" fill="black"/>
<path d="M722.341 138.37H718.621V137.32H727.306V138.37H723.586V148H722.341V138.37ZM733.582 144.19H728.047C728.057 145.15 728.277 145.875 728.707 146.365C729.147 146.855 729.782 147.1 730.612 147.1C731.492 147.1 732.302 146.805 733.042 146.215L733.447 147.1C733.117 147.41 732.692 147.655 732.172 147.835C731.662 148.015 731.137 148.105 730.597 148.105C729.417 148.105 728.492 147.76 727.822 147.07C727.152 146.37 726.817 145.415 726.817 144.205C726.817 143.435 726.967 142.755 727.267 142.165C727.567 141.565 727.987 141.1 728.527 140.77C729.067 140.44 729.682 140.275 730.372 140.275C731.372 140.275 732.157 140.605 732.727 141.265C733.297 141.915 733.582 142.815 733.582 143.965V144.19ZM730.387 141.22C729.757 141.22 729.242 141.41 728.842 141.79C728.452 142.17 728.202 142.705 728.092 143.395H732.487C732.427 142.685 732.217 142.145 731.857 141.775C731.507 141.405 731.017 141.22 730.387 141.22ZM737.751 148.105C736.481 148.105 735.476 147.78 734.736 147.13L735.141 146.23C735.551 146.55 735.966 146.78 736.386 146.92C736.806 147.06 737.276 147.13 737.796 147.13C738.366 147.13 738.796 147.035 739.086 146.845C739.386 146.645 739.536 146.36 739.536 145.99C739.536 145.69 739.436 145.45 739.236 145.27C739.036 145.09 738.706 144.95 738.246 144.85L736.971 144.55C736.341 144.41 735.851 144.16 735.501 143.8C735.161 143.44 734.991 143.01 734.991 142.51C734.991 141.85 735.256 141.315 735.786 140.905C736.316 140.485 737.016 140.275 737.886 140.275C738.416 140.275 738.916 140.36 739.386 140.53C739.856 140.7 740.251 140.945 740.571 141.265L740.166 142.15C739.456 141.56 738.696 141.265 737.886 141.265C737.346 141.265 736.926 141.37 736.626 141.58C736.336 141.78 736.191 142.065 736.191 142.435C736.191 142.745 736.281 142.99 736.461 143.17C736.651 143.35 736.951 143.49 737.361 143.59L738.636 143.905C739.336 144.065 739.856 144.315 740.196 144.655C740.536 144.985 740.706 145.42 740.706 145.96C740.706 146.61 740.441 147.13 739.911 147.52C739.381 147.91 738.661 148.105 737.751 148.105ZM743.964 141.415V145.54C743.964 146.1 744.079 146.495 744.309 146.725C744.539 146.945 744.864 147.055 745.284 147.055C745.564 147.055 745.834 147.01 746.094 146.92V147.955C745.784 148.055 745.434 148.105 745.044 148.105C744.324 148.105 743.759 147.905 743.349 147.505C742.949 147.095 742.749 146.495 742.749 145.705V141.415H741.279V140.455H742.749V138.52L743.964 138.085V140.455H746.124V141.415H743.964ZM747.363 140.455H748.578V148H747.363V140.455ZM748.728 137.26V138.64H747.243V137.26H748.728ZM759.082 140.275C760.752 140.275 761.587 141.27 761.587 143.26V148H760.372V143.32C760.372 142.61 760.247 142.095 759.997 141.775C759.757 141.455 759.362 141.295 758.812 141.295C758.172 141.295 757.672 141.51 757.312 141.94C756.952 142.37 756.772 142.955 756.772 143.695V148H755.557V143.32C755.557 142.62 755.432 142.11 755.182 141.79C754.932 141.46 754.532 141.295 753.982 141.295C753.342 141.295 752.837 141.51 752.467 141.94C752.107 142.37 751.927 142.955 751.927 143.695V148H750.712V142.57C750.712 141.79 750.672 141.085 750.592 140.455H751.747L751.867 141.775C752.077 141.295 752.387 140.925 752.797 140.665C753.217 140.405 753.702 140.275 754.252 140.275C754.852 140.275 755.342 140.395 755.722 140.635C756.102 140.875 756.382 141.245 756.562 141.745C756.792 141.295 757.127 140.94 757.567 140.68C758.017 140.41 758.522 140.275 759.082 140.275ZM766.791 148.105C766.081 148.105 765.456 147.945 764.916 147.625C764.376 147.305 763.956 146.85 763.656 146.26C763.366 145.67 763.221 144.98 763.221 144.19C763.221 143.4 763.366 142.71 763.656 142.12C763.956 141.53 764.376 141.075 764.916 140.755C765.456 140.435 766.081 140.275 766.791 140.275C767.501 140.275 768.126 140.435 768.666 140.755C769.206 141.075 769.621 141.53 769.911 142.12C770.211 142.71 770.361 143.4 770.361 144.19C770.361 144.98 770.211 145.67 769.911 146.26C769.621 146.85 769.206 147.305 768.666 147.625C768.126 147.945 767.501 148.105 766.791 148.105ZM766.791 147.1C767.541 147.1 768.116 146.855 768.516 146.365C768.916 145.865 769.116 145.14 769.116 144.19C769.116 143.27 768.911 142.56 768.501 142.06C768.091 141.55 767.521 141.295 766.791 141.295C766.051 141.295 765.476 141.55 765.066 142.06C764.656 142.56 764.451 143.27 764.451 144.19C764.451 145.14 764.651 145.865 765.051 146.365C765.461 146.855 766.041 147.1 766.791 147.1ZM775.795 140.275C777.605 140.275 778.51 141.27 778.51 143.26V148H777.295V143.32C777.295 142.62 777.155 142.11 776.875 141.79C776.595 141.46 776.155 141.295 775.555 141.295C774.855 141.295 774.295 141.51 773.875 141.94C773.455 142.37 773.245 142.95 773.245 143.68V148H772.03V142.57C772.03 141.79 771.99 141.085 771.91 140.455H773.065L773.185 141.805C773.415 141.315 773.76 140.94 774.22 140.68C774.68 140.41 775.205 140.275 775.795 140.275ZM780.579 140.455H781.794V148H780.579V140.455ZM781.944 137.26V138.64H780.459V137.26H781.944ZM787.049 148.105C786.339 148.105 785.714 147.945 785.174 147.625C784.634 147.305 784.214 146.85 783.914 146.26C783.624 145.67 783.479 144.98 783.479 144.19C783.479 143.4 783.624 142.71 783.914 142.12C784.214 141.53 784.634 141.075 785.174 140.755C785.714 140.435 786.339 140.275 787.049 140.275C787.759 140.275 788.384 140.435 788.924 140.755C789.464 141.075 789.879 141.53 790.169 142.12C790.469 142.71 790.619 143.4 790.619 144.19C790.619 144.98 790.469 145.67 790.169 146.26C789.879 146.85 789.464 147.305 788.924 147.625C788.384 147.945 787.759 148.105 787.049 148.105ZM787.049 147.1C787.799 147.1 788.374 146.855 788.774 146.365C789.174 145.865 789.374 145.14 789.374 144.19C789.374 143.27 789.169 142.56 788.759 142.06C788.349 141.55 787.779 141.295 787.049 141.295C786.309 141.295 785.734 141.55 785.324 142.06C784.914 142.56 784.709 143.27 784.709 144.19C784.709 145.14 784.909 145.865 785.309 146.365C785.719 146.855 786.299 147.1 787.049 147.1ZM794.838 148.105C793.568 148.105 792.563 147.78 791.823 147.13L792.228 146.23C792.638 146.55 793.053 146.78 793.473 146.92C793.893 147.06 794.363 147.13 794.883 147.13C795.453 147.13 795.883 147.035 796.173 146.845C796.473 146.645 796.623 146.36 796.623 145.99C796.623 145.69 796.523 145.45 796.323 145.27C796.123 145.09 795.793 144.95 795.333 144.85L794.058 144.55C793.428 144.41 792.938 144.16 792.588 143.8C792.248 143.44 792.078 143.01 792.078 142.51C792.078 141.85 792.343 141.315 792.873 140.905C793.403 140.485 794.103 140.275 794.973 140.275C795.503 140.275 796.003 140.36 796.473 140.53C796.943 140.7 797.338 140.945 797.658 141.265L797.253 142.15C796.543 141.56 795.783 141.265 794.973 141.265C794.433 141.265 794.013 141.37 793.713 141.58C793.423 141.78 793.278 142.065 793.278 142.435C793.278 142.745 793.368 142.99 793.548 143.17C793.738 143.35 794.038 143.49 794.448 143.59L795.723 143.905C796.423 144.065 796.943 144.315 797.283 144.655C797.623 144.985 797.793 145.42 797.793 145.96C797.793 146.61 797.528 147.13 796.998 147.52C796.468 147.91 795.748 148.105 794.838 148.105Z" fill="black"/>
<path d="M845.181 148.12C844.171 148.12 843.291 147.9 842.541 147.46C841.801 147.02 841.231 146.39 840.831 145.57C840.431 144.74 840.231 143.765 840.231 142.645C840.231 141.525 840.431 140.56 840.831 139.75C841.231 138.93 841.801 138.3 842.541 137.86C843.291 137.42 844.171 137.2 845.181 137.2C845.921 137.2 846.596 137.315 847.206 137.545C847.826 137.765 848.361 138.1 848.811 138.55L848.346 139.495C847.836 139.055 847.331 138.74 846.831 138.55C846.341 138.36 845.796 138.265 845.196 138.265C844.026 138.265 843.116 138.645 842.466 139.405C841.826 140.165 841.506 141.245 841.506 142.645C841.506 144.055 841.826 145.145 842.466 145.915C843.106 146.675 844.016 147.055 845.196 147.055C845.796 147.055 846.341 146.96 846.831 146.77C847.331 146.58 847.836 146.265 848.346 145.825L848.811 146.77C848.361 147.22 847.826 147.56 847.206 147.79C846.596 148.01 845.921 148.12 845.181 148.12ZM853.473 148.105C852.763 148.105 852.138 147.945 851.598 147.625C851.058 147.305 850.638 146.85 850.338 146.26C850.048 145.67 849.903 144.98 849.903 144.19C849.903 143.4 850.048 142.71 850.338 142.12C850.638 141.53 851.058 141.075 851.598 140.755C852.138 140.435 852.763 140.275 853.473 140.275C854.183 140.275 854.808 140.435 855.348 140.755C855.888 141.075 856.303 141.53 856.593 142.12C856.893 142.71 857.043 143.4 857.043 144.19C857.043 144.98 856.893 145.67 856.593 146.26C856.303 146.85 855.888 147.305 855.348 147.625C854.808 147.945 854.183 148.105 853.473 148.105ZM853.473 147.1C854.223 147.1 854.798 146.855 855.198 146.365C855.598 145.865 855.798 145.14 855.798 144.19C855.798 143.27 855.593 142.56 855.183 142.06C854.773 141.55 854.203 141.295 853.473 141.295C852.733 141.295 852.158 141.55 851.748 142.06C851.338 142.56 851.133 143.27 851.133 144.19C851.133 145.14 851.333 145.865 851.733 146.365C852.143 146.855 852.723 147.1 853.473 147.1ZM862.477 140.275C864.287 140.275 865.192 141.27 865.192 143.26V148H863.977V143.32C863.977 142.62 863.837 142.11 863.557 141.79C863.277 141.46 862.837 141.295 862.237 141.295C861.537 141.295 860.977 141.51 860.557 141.94C860.137 142.37 859.927 142.95 859.927 143.68V148H858.712V142.57C858.712 141.79 858.672 141.085 858.592 140.455H859.747L859.867 141.805C860.097 141.315 860.442 140.94 860.902 140.68C861.362 140.41 861.887 140.275 862.477 140.275ZM868.882 141.415V145.54C868.882 146.1 868.997 146.495 869.227 146.725C869.457 146.945 869.782 147.055 870.202 147.055C870.482 147.055 870.752 147.01 871.012 146.92V147.955C870.702 148.055 870.352 148.105 869.962 148.105C869.242 148.105 868.677 147.905 868.267 147.505C867.867 147.095 867.667 146.495 867.667 145.705V141.415H866.197V140.455H867.667V138.52L868.882 138.085V140.455H871.042V141.415H868.882ZM878.926 140.455V148H877.726V146.635C877.506 147.105 877.171 147.47 876.721 147.73C876.281 147.98 875.766 148.105 875.176 148.105C874.506 148.105 873.916 147.945 873.406 147.625C872.906 147.305 872.516 146.855 872.236 146.275C871.966 145.685 871.831 145 871.831 144.22C871.831 143.44 871.971 142.755 872.251 142.165C872.531 141.565 872.921 141.1 873.421 140.77C873.931 140.44 874.516 140.275 875.176 140.275C875.766 140.275 876.281 140.405 876.721 140.665C877.161 140.925 877.496 141.29 877.726 141.76V140.455H878.926ZM875.416 147.1C876.156 147.1 876.726 146.85 877.126 146.35C877.526 145.84 877.726 145.12 877.726 144.19C877.726 143.26 877.526 142.545 877.126 142.045C876.726 141.545 876.156 141.295 875.416 141.295C874.676 141.295 874.096 141.555 873.676 142.075C873.266 142.585 873.061 143.3 873.061 144.22C873.061 145.14 873.266 145.85 873.676 146.35C874.086 146.85 874.666 147.1 875.416 147.1ZM884.215 148.105C883.485 148.105 882.845 147.945 882.295 147.625C881.755 147.305 881.335 146.855 881.035 146.275C880.745 145.685 880.6 145 880.6 144.22C880.6 143.44 880.75 142.755 881.05 142.165C881.35 141.565 881.775 141.1 882.325 140.77C882.885 140.44 883.535 140.275 884.275 140.275C884.785 140.275 885.275 140.365 885.745 140.545C886.225 140.715 886.62 140.955 886.93 141.265L886.525 142.165C886.145 141.865 885.775 141.645 885.415 141.505C885.065 141.365 884.705 141.295 884.335 141.295C883.565 141.295 882.96 141.555 882.52 142.075C882.08 142.585 881.86 143.3 881.86 144.22C881.86 145.13 882.075 145.84 882.505 146.35C882.945 146.85 883.555 147.1 884.335 147.1C884.705 147.1 885.065 147.03 885.415 146.89C885.775 146.75 886.145 146.53 886.525 146.23L886.93 147.13C886.61 147.43 886.205 147.67 885.715 147.85C885.235 148.02 884.735 148.105 884.215 148.105ZM889.886 141.415V145.54C889.886 146.1 890.001 146.495 890.231 146.725C890.461 146.945 890.786 147.055 891.206 147.055C891.486 147.055 891.756 147.01 892.016 146.92V147.955C891.706 148.055 891.356 148.105 890.966 148.105C890.246 148.105 889.681 147.905 889.271 147.505C888.871 147.095 888.671 146.495 888.671 145.705V141.415H887.201V140.455H888.671V138.52L889.886 138.085V140.455H892.046V141.415H889.886ZM896.405 148.105C895.695 148.105 895.07 147.945 894.53 147.625C893.99 147.305 893.57 146.85 893.27 146.26C892.98 145.67 892.835 144.98 892.835 144.19C892.835 143.4 892.98 142.71 893.27 142.12C893.57 141.53 893.99 141.075 894.53 140.755C895.07 140.435 895.695 140.275 896.405 140.275C897.115 140.275 897.74 140.435 898.28 140.755C898.82 141.075 899.235 141.53 899.525 142.12C899.825 142.71 899.975 143.4 899.975 144.19C899.975 144.98 899.825 145.67 899.525 146.26C899.235 146.85 898.82 147.305 898.28 147.625C897.74 147.945 897.115 148.105 896.405 148.105ZM896.405 147.1C897.155 147.1 897.73 146.855 898.13 146.365C898.53 145.865 898.73 145.14 898.73 144.19C898.73 143.27 898.525 142.56 898.115 142.06C897.705 141.55 897.135 141.295 896.405 141.295C895.665 141.295 895.09 141.55 894.68 142.06C894.27 142.56 894.065 143.27 894.065 144.19C894.065 145.14 894.265 145.865 894.665 146.365C895.075 146.855 895.655 147.1 896.405 147.1Z" fill="black"/>
<path d="M947.187 148.12C946.177 148.12 945.297 147.9 944.547 147.46C943.807 147.02 943.237 146.39 942.837 145.57C942.437 144.74 942.237 143.765 942.237 142.645C942.237 141.525 942.437 140.56 942.837 139.75C943.237 138.93 943.807 138.3 944.547 137.86C945.297 137.42 946.177 137.2 947.187 137.2C947.927 137.2 948.602 137.315 949.212 137.545C949.832 137.765 950.367 138.1 950.817 138.55L950.352 139.495C949.842 139.055 949.337 138.74 948.837 138.55C948.347 138.36 947.802 138.265 947.202 138.265C946.032 138.265 945.122 138.645 944.472 139.405C943.832 140.165 943.512 141.245 943.512 142.645C943.512 144.055 943.832 145.145 944.472 145.915C945.112 146.675 946.022 147.055 947.202 147.055C947.802 147.055 948.347 146.96 948.837 146.77C949.337 146.58 949.842 146.265 950.352 145.825L950.817 146.77C950.367 147.22 949.832 147.56 949.212 147.79C948.602 148.01 947.927 148.12 947.187 148.12ZM955.48 148.105C954.77 148.105 954.145 147.945 953.605 147.625C953.065 147.305 952.645 146.85 952.345 146.26C952.055 145.67 951.91 144.98 951.91 144.19C951.91 143.4 952.055 142.71 952.345 142.12C952.645 141.53 953.065 141.075 953.605 140.755C954.145 140.435 954.77 140.275 955.48 140.275C956.19 140.275 956.815 140.435 957.355 140.755C957.895 141.075 958.31 141.53 958.6 142.12C958.9 142.71 959.05 143.4 959.05 144.19C959.05 144.98 958.9 145.67 958.6 146.26C958.31 146.85 957.895 147.305 957.355 147.625C956.815 147.945 956.19 148.105 955.48 148.105ZM955.48 147.1C956.23 147.1 956.805 146.855 957.205 146.365C957.605 145.865 957.805 145.14 957.805 144.19C957.805 143.27 957.6 142.56 957.19 142.06C956.78 141.55 956.21 141.295 955.48 141.295C954.74 141.295 954.165 141.55 953.755 142.06C953.345 142.56 953.14 143.27 953.14 144.19C953.14 145.14 953.34 145.865 953.74 146.365C954.15 146.855 954.73 147.1 955.48 147.1ZM964.484 140.275C966.294 140.275 967.199 141.27 967.199 143.26V148H965.984V143.32C965.984 142.62 965.844 142.11 965.564 141.79C965.284 141.46 964.844 141.295 964.244 141.295C963.544 141.295 962.984 141.51 962.564 141.94C962.144 142.37 961.934 142.95 961.934 143.68V148H960.719V142.57C960.719 141.79 960.679 141.085 960.599 140.455H961.754L961.874 141.805C962.104 141.315 962.449 140.94 962.909 140.68C963.369 140.41 963.894 140.275 964.484 140.275ZM970.888 141.415V145.54C970.888 146.1 971.003 146.495 971.233 146.725C971.463 146.945 971.788 147.055 972.208 147.055C972.488 147.055 972.758 147.01 973.018 146.92V147.955C972.708 148.055 972.358 148.105 971.968 148.105C971.248 148.105 970.683 147.905 970.273 147.505C969.873 147.095 969.673 146.495 969.673 145.705V141.415H968.203V140.455H969.673V138.52L970.888 138.085V140.455H973.048V141.415H970.888ZM977.797 140.275C978.047 140.275 978.277 140.305 978.487 140.365L978.457 141.475C978.227 141.395 977.962 141.355 977.662 141.355C976.932 141.355 976.387 141.585 976.027 142.045C975.677 142.495 975.502 143.045 975.502 143.695V148H974.287V142.57C974.287 141.79 974.247 141.085 974.167 140.455H975.322L975.442 141.85C975.632 141.34 975.937 140.95 976.357 140.68C976.777 140.41 977.257 140.275 977.797 140.275ZM979.497 140.455H980.712V148H979.497V140.455ZM980.862 137.26V138.64H979.377V137.26H980.862ZM986.611 140.275C987.271 140.275 987.856 140.435 988.366 140.755C988.876 141.075 989.271 141.53 989.551 142.12C989.831 142.7 989.971 143.38 989.971 144.16C989.971 144.94 989.831 145.63 989.551 146.23C989.271 146.82 988.876 147.28 988.366 147.61C987.856 147.94 987.271 148.105 986.611 148.105C986.021 148.105 985.506 147.975 985.066 147.715C984.626 147.455 984.291 147.085 984.061 146.605V148H982.846V136.96H984.061V141.79C984.281 141.3 984.611 140.925 985.051 140.665C985.501 140.405 986.021 140.275 986.611 140.275ZM986.386 147.1C987.116 147.1 987.686 146.845 988.096 146.335C988.506 145.815 988.711 145.09 988.711 144.16C988.711 143.25 988.506 142.545 988.096 142.045C987.696 141.545 987.126 141.295 986.386 141.295C985.636 141.295 985.061 141.545 984.661 142.045C984.261 142.545 984.061 143.26 984.061 144.19C984.061 145.12 984.261 145.84 984.661 146.35C985.061 146.85 985.636 147.1 986.386 147.1ZM997.93 140.455V148H996.745V146.695C996.505 147.155 996.17 147.505 995.74 147.745C995.31 147.985 994.825 148.105 994.285 148.105C993.395 148.105 992.72 147.855 992.26 147.355C991.8 146.855 991.57 146.115 991.57 145.135V140.455H992.785V145.105C992.785 145.785 992.925 146.285 993.205 146.605C993.485 146.925 993.91 147.085 994.48 147.085C995.15 147.085 995.69 146.87 996.1 146.44C996.51 146 996.715 145.425 996.715 144.715V140.455H997.93ZM1006.68 140.455L1003.15 148.69C1002.78 149.55 1002.32 150.18 1001.76 150.58C1001.2 150.98 1000.51 151.255 999.688 151.405L999.433 150.46C1000.14 150.3 1000.68 150.085 1001.04 149.815C1001.41 149.555 1001.71 149.15 1001.95 148.6L1002.25 147.925L999.058 140.455H1000.33L1002.88 146.68L1005.46 140.455H1006.68ZM1014.02 144.19H1008.48C1008.49 145.15 1008.71 145.875 1009.14 146.365C1009.58 146.855 1010.22 147.1 1011.05 147.1C1011.93 147.1 1012.74 146.805 1013.48 146.215L1013.88 147.1C1013.55 147.41 1013.13 147.655 1012.61 147.835C1012.1 148.015 1011.57 148.105 1011.03 148.105C1009.85 148.105 1008.93 147.76 1008.26 147.07C1007.59 146.37 1007.25 145.415 1007.25 144.205C1007.25 143.435 1007.4 142.755 1007.7 142.165C1008 141.565 1008.42 141.1 1008.96 140.77C1009.5 140.44 1010.12 140.275 1010.81 140.275C1011.81 140.275 1012.59 140.605 1013.16 141.265C1013.73 141.915 1014.02 142.815 1014.02 143.965V144.19ZM1010.82 141.22C1010.19 141.22 1009.68 141.41 1009.28 141.79C1008.89 142.17 1008.64 142.705 1008.53 143.395H1012.92C1012.86 142.685 1012.65 142.145 1012.29 141.775C1011.94 141.405 1011.45 141.22 1010.82 141.22Z" fill="black"/>
<path d="M611.13 137.32V148H610.17L603.72 139.405V148H602.565V137.32H603.51L609.96 145.915V137.32H611.13ZM616.501 148.105C615.791 148.105 615.166 147.945 614.626 147.625C614.086 147.305 613.666 146.85 613.366 146.26C613.076 145.67 612.931 144.98 612.931 144.19C612.931 143.4 613.076 142.71 613.366 142.12C613.666 141.53 614.086 141.075 614.626 140.755C615.166 140.435 615.791 140.275 616.501 140.275C617.211 140.275 617.836 140.435 618.376 140.755C618.916 141.075 619.331 141.53 619.621 142.12C619.921 142.71 620.071 143.4 620.071 144.19C620.071 144.98 619.921 145.67 619.621 146.26C619.331 146.85 618.916 147.305 618.376 147.625C617.836 147.945 617.211 148.105 616.501 148.105ZM616.501 147.1C617.251 147.1 617.826 146.855 618.226 146.365C618.626 145.865 618.826 145.14 618.826 144.19C618.826 143.27 618.621 142.56 618.211 142.06C617.801 141.55 617.231 141.295 616.501 141.295C615.761 141.295 615.186 141.55 614.776 142.06C614.366 142.56 614.161 143.27 614.161 144.19C614.161 145.14 614.361 145.865 614.761 146.365C615.171 146.855 615.751 147.1 616.501 147.1ZM628.282 140.47L625.027 148H623.872L620.662 140.47H621.937L624.487 146.68L627.067 140.47H628.282ZM635.623 144.19H630.088C630.098 145.15 630.318 145.875 630.748 146.365C631.188 146.855 631.823 147.1 632.653 147.1C633.533 147.1 634.343 146.805 635.083 146.215L635.488 147.1C635.158 147.41 634.733 147.655 634.213 147.835C633.703 148.015 633.178 148.105 632.638 148.105C631.458 148.105 630.533 147.76 629.863 147.07C629.193 146.37 628.858 145.415 628.858 144.205C628.858 143.435 629.008 142.755 629.308 142.165C629.608 141.565 630.028 141.1 630.568 140.77C631.108 140.44 631.723 140.275 632.413 140.275C633.413 140.275 634.198 140.605 634.768 141.265C635.338 141.915 635.623 142.815 635.623 143.965V144.19ZM632.428 141.22C631.798 141.22 631.283 141.41 630.883 141.79C630.493 142.17 630.243 142.705 630.133 143.395H634.528C634.468 142.685 634.258 142.145 633.898 141.775C633.548 141.405 633.058 141.22 632.428 141.22ZM643.887 136.96V148H642.687V146.635C642.467 147.105 642.132 147.47 641.682 147.73C641.242 147.98 640.727 148.105 640.137 148.105C639.477 148.105 638.892 147.94 638.382 147.61C637.882 147.28 637.492 146.82 637.212 146.23C636.932 145.63 636.792 144.94 636.792 144.16C636.792 143.38 636.927 142.7 637.197 142.12C637.477 141.53 637.872 141.075 638.382 140.755C638.892 140.435 639.477 140.275 640.137 140.275C640.727 140.275 641.242 140.405 641.682 140.665C642.122 140.915 642.452 141.27 642.672 141.73V136.96H643.887ZM640.377 147.1C641.117 147.1 641.687 146.85 642.087 146.35C642.487 145.84 642.687 145.12 642.687 144.19C642.687 143.27 642.487 142.56 642.087 142.06C641.687 141.55 641.117 141.295 640.377 141.295C639.637 141.295 639.057 141.545 638.637 142.045C638.227 142.545 638.022 143.25 638.022 144.16C638.022 145.09 638.227 145.815 638.637 146.335C639.057 146.845 639.637 147.1 640.377 147.1ZM652.656 140.455V148H651.456V146.635C651.236 147.105 650.901 147.47 650.451 147.73C650.011 147.98 649.496 148.105 648.906 148.105C648.236 148.105 647.646 147.945 647.136 147.625C646.636 147.305 646.246 146.855 645.966 146.275C645.696 145.685 645.561 145 645.561 144.22C645.561 143.44 645.701 142.755 645.981 142.165C646.261 141.565 646.651 141.1 647.151 140.77C647.661 140.44 648.246 140.275 648.906 140.275C649.496 140.275 650.011 140.405 650.451 140.665C650.891 140.925 651.226 141.29 651.456 141.76V140.455H652.656ZM649.146 147.1C649.886 147.1 650.456 146.85 650.856 146.35C651.256 145.84 651.456 145.12 651.456 144.19C651.456 143.26 651.256 142.545 650.856 142.045C650.456 141.545 649.886 141.295 649.146 141.295C648.406 141.295 647.826 141.555 647.406 142.075C646.996 142.585 646.791 143.3 646.791 144.22C646.791 145.14 646.996 145.85 647.406 146.35C647.816 146.85 648.396 147.1 649.146 147.1ZM661.426 136.96V148H660.226V146.635C660.006 147.105 659.671 147.47 659.221 147.73C658.781 147.98 658.266 148.105 657.676 148.105C657.016 148.105 656.431 147.94 655.921 147.61C655.421 147.28 655.031 146.82 654.751 146.23C654.471 145.63 654.331 144.94 654.331 144.16C654.331 143.38 654.466 142.7 654.736 142.12C655.016 141.53 655.411 141.075 655.921 140.755C656.431 140.435 657.016 140.275 657.676 140.275C658.266 140.275 658.781 140.405 659.221 140.665C659.661 140.915 659.991 141.27 660.211 141.73V136.96H661.426ZM657.916 147.1C658.656 147.1 659.226 146.85 659.626 146.35C660.026 145.84 660.226 145.12 660.226 144.19C660.226 143.27 660.026 142.56 659.626 142.06C659.226 141.55 658.656 141.295 657.916 141.295C657.176 141.295 656.596 141.545 656.176 142.045C655.766 142.545 655.561 143.25 655.561 144.16C655.561 145.09 655.766 145.815 656.176 146.335C656.596 146.845 657.176 147.1 657.916 147.1ZM669.865 144.19H664.33C664.34 145.15 664.56 145.875 664.99 146.365C665.43 146.855 666.065 147.1 666.895 147.1C667.775 147.1 668.585 146.805 669.325 146.215L669.73 147.1C669.4 147.41 668.975 147.655 668.455 147.835C667.945 148.015 667.42 148.105 666.88 148.105C665.7 148.105 664.775 147.76 664.105 147.07C663.435 146.37 663.1 145.415 663.1 144.205C663.1 143.435 663.25 142.755 663.55 142.165C663.85 141.565 664.27 141.1 664.81 140.77C665.35 140.44 665.965 140.275 666.655 140.275C667.655 140.275 668.44 140.605 669.01 141.265C669.58 141.915 669.865 142.815 669.865 143.965V144.19ZM666.67 141.22C666.04 141.22 665.525 141.41 665.125 141.79C664.735 142.17 664.485 142.705 664.375 143.395H668.77C668.71 142.685 668.5 142.145 668.14 141.775C667.79 141.405 667.3 141.22 666.67 141.22ZM674.034 148.105C672.764 148.105 671.759 147.78 671.019 147.13L671.424 146.23C671.834 146.55 672.249 146.78 672.669 146.92C673.089 147.06 673.559 147.13 674.079 147.13C674.649 147.13 675.079 147.035 675.369 146.845C675.669 146.645 675.819 146.36 675.819 145.99C675.819 145.69 675.719 145.45 675.519 145.27C675.319 145.09 674.989 144.95 674.529 144.85L673.254 144.55C672.624 144.41 672.134 144.16 671.784 143.8C671.444 143.44 671.274 143.01 671.274 142.51C671.274 141.85 671.539 141.315 672.069 140.905C672.599 140.485 673.299 140.275 674.169 140.275C674.699 140.275 675.199 140.36 675.669 140.53C676.139 140.7 676.534 140.945 676.854 141.265L676.449 142.15C675.739 141.56 674.979 141.265 674.169 141.265C673.629 141.265 673.209 141.37 672.909 141.58C672.619 141.78 672.474 142.065 672.474 142.435C672.474 142.745 672.564 142.99 672.744 143.17C672.934 143.35 673.234 143.49 673.644 143.59L674.919 143.905C675.619 144.065 676.139 144.315 676.479 144.655C676.819 144.985 676.989 145.42 676.989 145.96C676.989 146.61 676.724 147.13 676.194 147.52C675.664 147.91 674.944 148.105 674.034 148.105Z" fill="black"/>
<line x1="835" y1="64" x2="1440" y2="64.0001" stroke="black" stroke-width="2"/>
<line x1="8.74228e-08" y1="201" x2="1440" y2="201" stroke="black" stroke-width="2"/>
<line x1="-8.74228e-08" y1="64" x2="604" y2="63.9999" stroke="black" stroke-width="2"/>
<path d="M838 274C838 280.075 835.538 285.575 831.556 289.556C827.575 293.538 822.075 296 816 296C809.925 296 804.425 293.538 800.444 289.556C796.462 285.575 794 280.075 794 274C794 267.925 796.462 262.425 800.444 258.444C804.425 254.462 809.925 252 816 252C822.075 252 827.575 254.462 831.556 258.444C835.538 262.425 838 267.925 838 274Z" fill="black"/>
<path d="M837.5 274C837.5 279.937 835.094 285.311 831.203 289.203C827.312 293.094 821.937 295.5 816 295.5C810.063 295.5 804.688 293.094 800.797 289.203C796.906 285.311 794.5 279.937 794.5 274C794.5 268.063 796.906 262.688 800.797 258.797C804.688 254.906 810.063 252.5 816 252.5C821.937 252.5 827.312 254.906 831.203 258.797C835.094 262.688 837.5 268.063 837.5 274Z" stroke="white" stroke-opacity="0.3"/>
<path d="M774 274C774 280.075 771.538 285.575 767.556 289.556C763.575 293.538 758.075 296 752 296C745.925 296 740.425 293.538 736.444 289.556C732.462 285.575 730 280.075 730 274C730 267.925 732.462 262.425 736.444 258.444C740.425 254.462 745.925 252 752 252C758.075 252 763.575 254.462 767.556 258.444C771.538 262.425 774 267.925 774 274Z" fill="black"/>
<path d="M773.5 274C773.5 279.937 771.094 285.311 767.203 289.203C763.312 293.094 757.937 295.5 752 295.5C746.063 295.5 740.688 293.094 736.797 289.203C732.906 285.311 730.5 279.937 730.5 274C730.5 268.063 732.906 262.688 736.797 258.797C740.688 254.906 746.063 252.5 752 252.5C757.937 252.5 763.312 254.906 767.203 258.797C771.094 262.688 773.5 268.063 773.5 274Z" stroke="white" stroke-opacity="0.3"/>
<path d="M710 274C710 280.075 707.538 285.575 703.556 289.556C699.575 293.538 694.075 296 688 296C681.925 296 676.425 293.538 672.444 289.556C668.462 285.575 666 280.075 666 274C666 267.925 668.462 262.425 672.444 258.444C676.425 254.462 681.925 252 688 252C694.075 252 699.575 254.462 703.556 258.444C707.538 262.425 710 267.925 710 274Z" fill="black"/>
<path d="M709.5 274C709.5 279.937 707.094 285.311 703.203 289.203C699.312 293.094 693.937 295.5 688 295.5C682.063 295.5 676.688 293.094 672.797 289.203C668.906 285.311 666.5 279.937 666.5 274C666.5 268.063 668.906 262.688 672.797 258.797C676.688 254.906 682.063 252.5 688 252.5C693.937 252.5 699.312 254.906 703.203 258.797C707.094 262.688 709.5 268.063 709.5 274Z" stroke="white" stroke-opacity="0.3"/>
<path d="M645 274C645 280.075 642.538 285.575 638.556 289.556C634.575 293.538 629.075 296 623 296C616.925 296 611.425 293.538 607.444 289.556C603.462 285.575 601 280.075 601 274C601 267.925 603.462 262.425 607.444 258.444C611.425 254.462 616.925 252 623 252C629.075 252 634.575 254.462 638.556 258.444C642.538 262.425 645 267.925 645 274Z" fill="black"/>
<path d="M644.5 274C644.5 279.937 642.094 285.311 638.203 289.203C634.312 293.094 628.937 295.5 623 295.5C617.063 295.5 611.688 293.094 607.797 289.203C603.906 285.311 601.5 279.937 601.5 274C601.5 268.063 603.906 262.688 607.797 258.797C611.688 254.906 617.063 252.5 623 252.5C628.937 252.5 634.312 254.906 638.203 258.797C642.094 262.688 644.5 268.063 644.5 274Z" stroke="white" stroke-opacity="0.3"/>
<path d="M587.726 333V332.235L592.091 327.96C592.491 327.57 592.791 327.23 592.991 326.94C593.191 326.64 593.326 326.36 593.396 326.1C593.466 325.84 593.501 325.595 593.501 325.365C593.501 324.755 593.291 324.275 592.871 323.925C592.461 323.575 591.851 323.4 591.041 323.4C590.421 323.4 589.871 323.495 589.391 323.685C588.921 323.875 588.516 324.17 588.176 324.57L587.411 323.91C587.821 323.43 588.346 323.06 588.986 322.8C589.626 322.54 590.341 322.41 591.131 322.41C591.841 322.41 592.456 322.525 592.976 322.755C593.496 322.975 593.896 323.3 594.176 323.73C594.466 324.16 594.611 324.665 594.611 325.245C594.611 325.585 594.561 325.92 594.461 326.25C594.371 326.58 594.201 326.93 593.951 327.3C593.711 327.66 593.356 328.07 592.886 328.53L588.881 332.46L588.581 332.04H595.091V333H587.726ZM600.377 333.09C599.567 333.09 598.847 332.88 598.217 332.46C597.587 332.03 597.092 331.42 596.732 330.63C596.372 329.83 596.192 328.87 596.192 327.75C596.192 326.63 596.372 325.675 596.732 324.885C597.092 324.085 597.587 323.475 598.217 323.055C598.847 322.625 599.567 322.41 600.377 322.41C601.187 322.41 601.907 322.625 602.537 323.055C603.167 323.475 603.662 324.085 604.022 324.885C604.392 325.675 604.577 326.63 604.577 327.75C604.577 328.87 604.392 329.83 604.022 330.63C603.662 331.42 603.167 332.03 602.537 332.46C601.907 332.88 601.187 333.09 600.377 333.09ZM600.377 332.1C600.997 332.1 601.537 331.935 601.997 331.605C602.457 331.265 602.817 330.775 603.077 330.135C603.337 329.485 603.467 328.69 603.467 327.75C603.467 326.81 603.337 326.02 603.077 325.38C602.817 324.73 602.457 324.24 601.997 323.91C601.537 323.57 600.997 323.4 600.377 323.4C599.777 323.4 599.242 323.57 598.772 323.91C598.302 324.24 597.937 324.73 597.677 325.38C597.417 326.02 597.287 326.81 597.287 327.75C597.287 328.69 597.417 329.485 597.677 330.135C597.937 330.775 598.302 331.265 598.772 331.605C599.242 331.935 599.777 332.1 600.377 332.1ZM605.704 333V332.235L610.069 327.96C610.469 327.57 610.769 327.23 610.969 326.94C611.169 326.64 611.304 326.36 611.374 326.1C611.444 325.84 611.479 325.595 611.479 325.365C611.479 324.755 611.269 324.275 610.849 323.925C610.439 323.575 609.829 323.4 609.019 323.4C608.399 323.4 607.849 323.495 607.369 323.685C606.899 323.875 606.494 324.17 606.154 324.57L605.389 323.91C605.799 323.43 606.324 323.06 606.964 322.8C607.604 322.54 608.319 322.41 609.109 322.41C609.819 322.41 610.434 322.525 610.954 322.755C611.474 322.975 611.874 323.3 612.154 323.73C612.444 324.16 612.589 324.665 612.589 325.245C612.589 325.585 612.539 325.92 612.439 326.25C612.349 326.58 612.179 326.93 611.929 327.3C611.689 327.66 611.334 328.07 610.864 328.53L606.859 332.46L606.559 332.04H613.069V333H605.704ZM614.004 333V332.235L618.369 327.96C618.769 327.57 619.069 327.23 619.269 326.94C619.469 326.64 619.604 326.36 619.674 326.1C619.744 325.84 619.779 325.595 619.779 325.365C619.779 324.755 619.569 324.275 619.149 323.925C618.739 323.575 618.129 323.4 617.319 323.4C616.699 323.4 616.149 323.495 615.669 323.685C615.199 323.875 614.794 324.17 614.454 324.57L613.689 323.91C614.099 323.43 614.624 323.06 615.264 322.8C615.904 322.54 616.619 322.41 617.409 322.41C618.119 322.41 618.734 322.525 619.254 322.755C619.774 322.975 620.174 323.3 620.454 323.73C620.744 324.16 620.889 324.665 620.889 325.245C620.889 325.585 620.839 325.92 620.739 326.25C620.649 326.58 620.479 326.93 620.229 327.3C619.989 327.66 619.634 328.07 619.164 328.53L615.159 332.46L614.859 332.04H621.369V333H614.004ZM630.97 333.075C630.28 333.075 629.66 332.92 629.11 332.61C628.56 332.29 628.125 331.83 627.805 331.23C627.485 330.63 627.325 329.905 627.325 329.055C627.325 328.195 627.485 327.47 627.805 326.88C628.135 326.28 628.575 325.825 629.125 325.515C629.675 325.205 630.29 325.05 630.97 325.05C631.72 325.05 632.39 325.22 632.98 325.56C633.58 325.89 634.05 326.355 634.39 326.955C634.73 327.555 634.9 328.255 634.9 329.055C634.9 329.845 634.73 330.545 634.39 331.155C634.05 331.755 633.58 332.225 632.98 332.565C632.39 332.905 631.72 333.075 630.97 333.075ZM626.905 333V321.87H627.97V327.45L627.82 329.04L627.925 330.63V333H626.905ZM630.895 332.13C631.455 332.13 631.955 332.005 632.395 331.755C632.835 331.495 633.185 331.135 633.445 330.675C633.705 330.205 633.835 329.665 633.835 329.055C633.835 328.435 633.705 327.895 633.445 327.435C633.185 326.975 632.835 326.62 632.395 326.37C631.955 326.11 631.455 325.98 630.895 325.98C630.335 325.98 629.83 326.11 629.38 326.37C628.94 326.62 628.59 326.975 628.33 327.435C628.08 327.895 627.955 328.435 627.955 329.055C627.955 329.665 628.08 330.205 628.33 330.675C628.59 331.135 628.94 331.495 629.38 331.755C629.83 332.005 630.335 332.13 630.895 332.13ZM636.687 335.985C636.317 335.985 635.962 335.925 635.622 335.805C635.292 335.685 635.007 335.505 634.767 335.265L635.262 334.47C635.462 334.66 635.677 334.805 635.907 334.905C636.147 335.015 636.412 335.07 636.702 335.07C637.052 335.07 637.352 334.97 637.602 334.77C637.862 334.58 638.107 334.24 638.337 333.75L638.847 332.595L638.967 332.43L642.207 325.125H643.257L639.312 333.945C639.092 334.455 638.847 334.86 638.577 335.16C638.317 335.46 638.032 335.67 637.722 335.79C637.412 335.92 637.067 335.985 636.687 335.985ZM638.787 333.225L635.157 325.125H636.267L639.477 332.355L638.787 333.225ZM646.777 333L651.577 322.5H652.672L657.472 333H656.302L651.892 323.145H652.342L647.932 333H646.777ZM648.667 330.195L648.997 329.295H655.102L655.432 330.195H648.667ZM658.759 333V321.87H659.824V333H658.759ZM663.403 330.96L663.433 329.595L668.338 325.125H669.643L666.178 328.44L665.578 328.95L663.403 330.96ZM662.563 333V321.87H663.628V333H662.563ZM668.668 333L665.383 328.905L666.073 328.08L669.973 333H668.668ZM674.384 333.075C673.564 333.075 672.844 332.905 672.224 332.565C671.604 332.215 671.119 331.74 670.769 331.14C670.419 330.53 670.244 329.835 670.244 329.055C670.244 328.275 670.409 327.585 670.739 326.985C671.079 326.385 671.539 325.915 672.119 325.575C672.709 325.225 673.369 325.05 674.099 325.05C674.839 325.05 675.494 325.22 676.064 325.56C676.644 325.89 677.099 326.36 677.429 326.97C677.759 327.57 677.924 328.265 677.924 329.055C677.924 329.105 677.919 329.16 677.909 329.22C677.909 329.27 677.909 329.325 677.909 329.385H671.054V328.59H677.339L676.919 328.905C676.919 328.335 676.794 327.83 676.544 327.39C676.304 326.94 675.974 326.59 675.554 326.34C675.134 326.09 674.649 325.965 674.099 325.965C673.559 325.965 673.074 326.09 672.644 326.34C672.214 326.59 671.879 326.94 671.639 327.39C671.399 327.84 671.279 328.355 671.279 328.935V329.1C671.279 329.7 671.409 330.23 671.669 330.69C671.939 331.14 672.309 331.495 672.779 331.755C673.259 332.005 673.804 332.13 674.414 332.13C674.894 332.13 675.339 332.045 675.749 331.875C676.169 331.705 676.529 331.445 676.829 331.095L677.429 331.785C677.079 332.205 676.639 332.525 676.109 332.745C675.589 332.965 675.014 333.075 674.384 333.075ZM689.707 325.05C690.347 325.05 690.902 325.175 691.372 325.425C691.852 325.665 692.222 326.035 692.482 326.535C692.752 327.035 692.887 327.665 692.887 328.425V333H691.822V328.53C691.822 327.7 691.622 327.075 691.222 326.655C690.832 326.225 690.277 326.01 689.557 326.01C689.017 326.01 688.547 326.125 688.147 326.355C687.757 326.575 687.452 326.9 687.232 327.33C687.022 327.75 686.917 328.26 686.917 328.86V333H685.852V328.53C685.852 327.7 685.652 327.075 685.252 326.655C684.852 326.225 684.292 326.01 683.572 326.01C683.042 326.01 682.577 326.125 682.177 326.355C681.777 326.575 681.467 326.9 681.247 327.33C681.037 327.75 680.932 328.26 680.932 328.86V333H679.867V325.125H680.887V327.255L680.722 326.88C680.962 326.31 681.347 325.865 681.877 325.545C682.417 325.215 683.052 325.05 683.782 325.05C684.552 325.05 685.207 325.245 685.747 325.635C686.287 326.015 686.637 326.59 686.797 327.36L686.377 327.195C686.607 326.555 687.012 326.04 687.592 325.65C688.182 325.25 688.887 325.05 689.707 325.05ZM695.463 335.985C695.093 335.985 694.738 335.925 694.398 335.805C694.068 335.685 693.783 335.505 693.543 335.265L694.038 334.47C694.238 334.66 694.453 334.805 694.683 334.905C694.923 335.015 695.188 335.07 695.478 335.07C695.828 335.07 696.128 334.97 696.378 334.77C696.638 334.58 696.883 334.24 697.113 333.75L697.623 332.595L697.743 332.43L700.983 325.125H702.033L698.088 333.945C697.868 334.455 697.623 334.86 697.353 335.16C697.093 335.46 696.808 335.67 696.498 335.79C696.188 335.92 695.843 335.985 695.463 335.985ZM697.563 333.225L693.933 325.125H695.043L698.253 332.355L697.563 333.225ZM702.9 333.075C702.68 333.075 702.49 332.995 702.33 332.835C702.18 332.675 702.105 332.48 702.105 332.25C702.105 332.01 702.18 331.815 702.33 331.665C702.49 331.515 702.68 331.44 702.9 331.44C703.12 331.44 703.305 331.515 703.455 331.665C703.615 331.815 703.695 332.01 703.695 332.25C703.695 332.48 703.615 332.675 703.455 332.835C703.305 332.995 703.12 333.075 702.9 333.075ZM707.995 333L712.795 322.5H713.89L718.69 333H717.52L713.11 323.145H713.56L709.15 333H707.995ZM709.885 330.195L710.215 329.295H716.32L716.65 330.195H709.885ZM719.977 333V321.87H721.042V333H719.977ZM723.78 333V321.87H724.845V333H723.78ZM731.509 333V322.5H735.439C736.329 322.5 737.094 322.645 737.734 322.935C738.374 323.215 738.864 323.625 739.204 324.165C739.554 324.695 739.729 325.34 739.729 326.1C739.729 326.84 739.554 327.48 739.204 328.02C738.864 328.55 738.374 328.96 737.734 329.25C737.094 329.53 736.329 329.67 735.439 329.67H732.124L732.619 329.16V333H731.509ZM738.679 333L735.979 329.19H737.179L739.894 333H738.679ZM732.619 329.25L732.124 328.725H735.409C736.459 328.725 737.254 328.495 737.794 328.035C738.344 327.575 738.619 326.93 738.619 326.1C738.619 325.26 738.344 324.61 737.794 324.15C737.254 323.69 736.459 323.46 735.409 323.46H732.124L732.619 322.935V329.25ZM741.899 333V325.125H742.964V333H741.899ZM742.439 323.385C742.219 323.385 742.034 323.31 741.884 323.16C741.734 323.01 741.659 322.83 741.659 322.62C741.659 322.41 741.734 322.235 741.884 322.095C742.034 321.945 742.219 321.87 742.439 321.87C742.659 321.87 742.844 321.94 742.994 322.08C743.144 322.22 743.219 322.395 743.219 322.605C743.219 322.825 743.144 323.01 742.994 323.16C742.854 323.31 742.669 323.385 742.439 323.385ZM749.062 335.985C748.342 335.985 747.652 335.88 746.992 335.67C746.332 335.46 745.797 335.16 745.387 334.77L745.927 333.96C746.297 334.29 746.752 334.55 747.292 334.74C747.842 334.94 748.422 335.04 749.032 335.04C750.032 335.04 750.767 334.805 751.237 334.335C751.707 333.875 751.942 333.155 751.942 332.175V330.21L752.092 328.86L751.987 327.51V325.125H753.007V332.04C753.007 333.4 752.672 334.395 752.002 335.025C751.342 335.665 750.362 335.985 749.062 335.985ZM748.867 332.7C748.117 332.7 747.442 332.54 746.842 332.22C746.242 331.89 745.767 331.435 745.417 330.855C745.077 330.275 744.907 329.61 744.907 328.86C744.907 328.11 745.077 327.45 745.417 326.88C745.767 326.3 746.242 325.85 746.842 325.53C747.442 325.21 748.117 325.05 748.867 325.05C749.567 325.05 750.197 325.195 750.757 325.485C751.317 325.775 751.762 326.205 752.092 326.775C752.422 327.345 752.587 328.04 752.587 328.86C752.587 329.68 752.422 330.375 752.092 330.945C751.762 331.515 751.317 331.95 750.757 332.25C750.197 332.55 749.567 332.7 748.867 332.7ZM748.972 331.755C749.552 331.755 750.067 331.635 750.517 331.395C750.967 331.145 751.322 330.805 751.582 330.375C751.842 329.935 751.972 329.43 751.972 328.86C751.972 328.29 751.842 327.79 751.582 327.36C751.322 326.93 750.967 326.595 750.517 326.355C750.067 326.105 749.552 325.98 748.972 325.98C748.402 325.98 747.887 326.105 747.427 326.355C746.977 326.595 746.622 326.93 746.362 327.36C746.112 327.79 745.987 328.29 745.987 328.86C745.987 329.43 746.112 329.935 746.362 330.375C746.622 330.805 746.977 331.145 747.427 331.395C747.887 331.635 748.402 331.755 748.972 331.755ZM759.766 325.05C760.406 325.05 760.966 325.175 761.446 325.425C761.936 325.665 762.316 326.035 762.586 326.535C762.866 327.035 763.006 327.665 763.006 328.425V333H761.941V328.53C761.941 327.7 761.731 327.075 761.311 326.655C760.901 326.225 760.321 326.01 759.571 326.01C759.011 326.01 758.521 326.125 758.101 326.355C757.691 326.575 757.371 326.9 757.141 327.33C756.921 327.75 756.811 328.26 756.811 328.86V333H755.746V321.87H756.811V327.285L756.601 326.88C756.851 326.31 757.251 325.865 757.801 325.545C758.351 325.215 759.006 325.05 759.766 325.05ZM768.148 333.075C767.408 333.075 766.838 332.875 766.438 332.475C766.038 332.075 765.838 331.51 765.838 330.78V323.385H766.903V330.72C766.903 331.18 767.018 331.535 767.248 331.785C767.488 332.035 767.828 332.16 768.268 332.16C768.738 332.16 769.128 332.025 769.438 331.755L769.813 332.52C769.603 332.71 769.348 332.85 769.048 332.94C768.758 333.03 768.458 333.075 768.148 333.075ZM764.428 326.01V325.125H769.303V326.01H764.428ZM773.642 333.075C772.992 333.075 772.377 332.985 771.797 332.805C771.217 332.615 770.762 332.38 770.432 332.1L770.912 331.26C771.232 331.5 771.642 331.71 772.142 331.89C772.642 332.06 773.167 332.145 773.717 332.145C774.467 332.145 775.007 332.03 775.337 331.8C775.667 331.56 775.832 331.245 775.832 330.855C775.832 330.565 775.737 330.34 775.547 330.18C775.367 330.01 775.127 329.885 774.827 329.805C774.527 329.715 774.192 329.64 773.822 329.58C773.452 329.52 773.082 329.45 772.712 329.37C772.352 329.29 772.022 329.175 771.722 329.025C771.422 328.865 771.177 328.65 770.987 328.38C770.807 328.11 770.717 327.75 770.717 327.3C770.717 326.87 770.837 326.485 771.077 326.145C771.317 325.805 771.667 325.54 772.127 325.35C772.597 325.15 773.167 325.05 773.837 325.05C774.347 325.05 774.857 325.12 775.367 325.26C775.877 325.39 776.297 325.565 776.627 325.785L776.162 326.64C775.812 326.4 775.437 326.23 775.037 326.13C774.637 326.02 774.237 325.965 773.837 325.965C773.127 325.965 772.602 326.09 772.262 326.34C771.932 326.58 771.767 326.89 771.767 327.27C771.767 327.57 771.857 327.805 772.037 327.975C772.227 328.145 772.472 328.28 772.772 328.38C773.082 328.47 773.417 328.545 773.777 328.605C774.147 328.665 774.512 328.74 774.872 328.83C775.242 328.91 775.577 329.025 775.877 329.175C776.187 329.315 776.432 329.52 776.612 329.79C776.802 330.05 776.897 330.395 776.897 330.825C776.897 331.285 776.767 331.685 776.507 332.025C776.257 332.355 775.887 332.615 775.397 332.805C774.917 332.985 774.332 333.075 773.642 333.075ZM782.552 333V322.5H786.482C787.372 322.5 788.137 322.645 788.777 322.935C789.417 323.215 789.907 323.625 790.247 324.165C790.597 324.695 790.772 325.34 790.772 326.1C790.772 326.84 790.597 327.48 790.247 328.02C789.907 328.55 789.417 328.96 788.777 329.25C788.137 329.53 787.372 329.67 786.482 329.67H783.167L783.662 329.16V333H782.552ZM789.722 333L787.022 329.19H788.222L790.937 333H789.722ZM783.662 329.25L783.167 328.725H786.452C787.502 328.725 788.297 328.495 788.837 328.035C789.387 327.575 789.662 326.93 789.662 326.1C789.662 325.26 789.387 324.61 788.837 324.15C788.297 323.69 787.502 323.46 786.452 323.46H783.167L783.662 322.935V329.25ZM796.286 333.075C795.466 333.075 794.746 332.905 794.126 332.565C793.506 332.215 793.021 331.74 792.671 331.14C792.321 330.53 792.146 329.835 792.146 329.055C792.146 328.275 792.311 327.585 792.641 326.985C792.981 326.385 793.441 325.915 794.021 325.575C794.611 325.225 795.271 325.05 796.001 325.05C796.741 325.05 797.396 325.22 797.966 325.56C798.546 325.89 799.001 326.36 799.331 326.97C799.661 327.57 799.826 328.265 799.826 329.055C799.826 329.105 799.821 329.16 799.811 329.22C799.811 329.27 799.811 329.325 799.811 329.385H792.956V328.59H799.241L798.821 328.905C798.821 328.335 798.696 327.83 798.446 327.39C798.206 326.94 797.876 326.59 797.456 326.34C797.036 326.09 796.551 325.965 796.001 325.965C795.461 325.965 794.976 326.09 794.546 326.34C794.116 326.59 793.781 326.94 793.541 327.39C793.301 327.84 793.181 328.355 793.181 328.935V329.1C793.181 329.7 793.311 330.23 793.571 330.69C793.841 331.14 794.211 331.495 794.681 331.755C795.161 332.005 795.706 332.13 796.316 332.13C796.796 332.13 797.241 332.045 797.651 331.875C798.071 331.705 798.431 331.445 798.731 331.095L799.331 331.785C798.981 332.205 798.541 332.525 798.011 332.745C797.491 332.965 796.916 333.075 796.286 333.075ZM803.884 333.075C803.234 333.075 802.619 332.985 802.039 332.805C801.459 332.615 801.004 332.38 800.674 332.1L801.154 331.26C801.474 331.5 801.884 331.71 802.384 331.89C802.884 332.06 803.409 332.145 803.959 332.145C804.709 332.145 805.249 332.03 805.579 331.8C805.909 331.56 806.074 331.245 806.074 330.855C806.074 330.565 805.979 330.34 805.789 330.18C805.609 330.01 805.369 329.885 805.069 329.805C804.769 329.715 804.434 329.64 804.064 329.58C803.694 329.52 803.324 329.45 802.954 329.37C802.594 329.29 802.264 329.175 801.964 329.025C801.664 328.865 801.419 328.65 801.229 328.38C801.049 328.11 800.959 327.75 800.959 327.3C800.959 326.87 801.079 326.485 801.319 326.145C801.559 325.805 801.909 325.54 802.369 325.35C802.839 325.15 803.409 325.05 804.079 325.05C804.589 325.05 805.099 325.12 805.609 325.26C806.119 325.39 806.539 325.565 806.869 325.785L806.404 326.64C806.054 326.4 805.679 326.23 805.279 326.13C804.879 326.02 804.479 325.965 804.079 325.965C803.369 325.965 802.844 326.09 802.504 326.34C802.174 326.58 802.009 326.89 802.009 327.27C802.009 327.57 802.099 327.805 802.279 327.975C802.469 328.145 802.714 328.28 803.014 328.38C803.324 328.47 803.659 328.545 804.019 328.605C804.389 328.665 804.754 328.74 805.114 328.83C805.484 328.91 805.819 329.025 806.119 329.175C806.429 329.315 806.674 329.52 806.854 329.79C807.044 330.05 807.139 330.395 807.139 330.825C807.139 331.285 807.009 331.685 806.749 332.025C806.499 332.355 806.129 332.615 805.639 332.805C805.159 332.985 804.574 333.075 803.884 333.075ZM812.213 333.075C811.393 333.075 810.673 332.905 810.053 332.565C809.433 332.215 808.948 331.74 808.598 331.14C808.248 330.53 808.073 329.835 808.073 329.055C808.073 328.275 808.238 327.585 808.568 326.985C808.908 326.385 809.368 325.915 809.948 325.575C810.538 325.225 811.198 325.05 811.928 325.05C812.668 325.05 813.323 325.22 813.893 325.56C814.473 325.89 814.928 326.36 815.258 326.97C815.588 327.57 815.753 328.265 815.753 329.055C815.753 329.105 815.748 329.16 815.738 329.22C815.738 329.27 815.738 329.325 815.738 329.385H808.883V328.59H815.168L814.748 328.905C814.748 328.335 814.623 327.83 814.373 327.39C814.133 326.94 813.803 326.59 813.383 326.34C812.963 326.09 812.478 325.965 811.928 325.965C811.388 325.965 810.903 326.09 810.473 326.34C810.043 326.59 809.708 326.94 809.468 327.39C809.228 327.84 809.108 328.355 809.108 328.935V329.1C809.108 329.7 809.238 330.23 809.498 330.69C809.768 331.14 810.138 331.495 810.608 331.755C811.088 332.005 811.633 332.13 812.243 332.13C812.723 332.13 813.168 332.045 813.578 331.875C813.998 331.705 814.358 331.445 814.658 331.095L815.258 331.785C814.908 332.205 814.468 332.525 813.938 332.745C813.418 332.965 812.843 333.075 812.213 333.075ZM817.696 333V325.125H818.716V327.27L818.611 326.895C818.831 326.295 819.201 325.84 819.721 325.53C820.241 325.21 820.886 325.05 821.656 325.05V326.085C821.616 326.085 821.576 326.085 821.536 326.085C821.496 326.075 821.456 326.07 821.416 326.07C820.586 326.07 819.936 326.325 819.466 326.835C818.996 327.335 818.761 328.05 818.761 328.98V333H817.696ZM825.736 333L822.241 325.125H823.351L826.561 332.43H826.036L829.291 325.125H830.341L826.831 333H825.736ZM834.741 333.075C833.921 333.075 833.201 332.905 832.581 332.565C831.961 332.215 831.476 331.74 831.126 331.14C830.776 330.53 830.601 329.835 830.601 329.055C830.601 328.275 830.766 327.585 831.096 326.985C831.436 326.385 831.896 325.915 832.476 325.575C833.066 325.225 833.726 325.05 834.456 325.05C835.196 325.05 835.851 325.22 836.421 325.56C837.001 325.89 837.456 326.36 837.786 326.97C838.116 327.57 838.281 328.265 838.281 329.055C838.281 329.105 838.276 329.16 838.266 329.22C838.266 329.27 838.266 329.325 838.266 329.385H831.411V328.59H837.696L837.276 328.905C837.276 328.335 837.151 327.83 836.901 327.39C836.661 326.94 836.331 326.59 835.911 326.34C835.491 326.09 835.006 325.965 834.456 325.965C833.916 325.965 833.431 326.09 833.001 326.34C832.571 326.59 832.236 326.94 831.996 327.39C831.756 327.84 831.636 328.355 831.636 328.935V329.1C831.636 329.7 831.766 330.23 832.026 330.69C832.296 331.14 832.666 331.495 833.136 331.755C833.616 332.005 834.161 332.13 834.771 332.13C835.251 332.13 835.696 332.045 836.106 331.875C836.526 331.705 836.886 331.445 837.186 331.095L837.786 331.785C837.436 332.205 836.996 332.525 836.466 332.745C835.946 332.965 835.371 333.075 834.741 333.075ZM843.359 333.075C842.609 333.075 841.934 332.905 841.334 332.565C840.744 332.225 840.279 331.755 839.939 331.155C839.599 330.545 839.429 329.845 839.429 329.055C839.429 328.255 839.599 327.555 839.939 326.955C840.279 326.355 840.744 325.89 841.334 325.56C841.934 325.22 842.609 325.05 843.359 325.05C844.049 325.05 844.664 325.205 845.204 325.515C845.754 325.825 846.189 326.28 846.509 326.88C846.839 327.47 847.004 328.195 847.004 329.055C847.004 329.905 846.844 330.63 846.524 331.23C846.204 331.83 845.769 332.29 845.219 332.61C844.679 332.92 844.059 333.075 843.359 333.075ZM843.434 332.13C843.994 332.13 844.494 332.005 844.934 331.755C845.384 331.495 845.734 331.135 845.984 330.675C846.244 330.205 846.374 329.665 846.374 329.055C846.374 328.435 846.244 327.895 845.984 327.435C845.734 326.975 845.384 326.62 844.934 326.37C844.494 326.11 843.994 325.98 843.434 325.98C842.884 325.98 842.389 326.11 841.949 326.37C841.509 326.62 841.159 326.975 840.899 327.435C840.639 327.895 840.509 328.435 840.509 329.055C840.509 329.665 840.639 330.205 840.899 330.675C841.159 331.135 841.509 331.495 841.949 331.755C842.389 332.005 842.884 332.13 843.434 332.13ZM846.404 333V330.63L846.509 329.04L846.359 327.45V321.87H847.424V333H846.404ZM850.27 333.075C850.05 333.075 849.86 332.995 849.7 332.835C849.55 332.675 849.475 332.48 849.475 332.25C849.475 332.01 849.55 331.815 849.7 331.665C849.86 331.515 850.05 331.44 850.27 331.44C850.49 331.44 850.675 331.515 850.825 331.665C850.985 331.815 851.065 332.01 851.065 332.25C851.065 332.48 850.985 332.675 850.825 332.835C850.675 332.995 850.49 333.075 850.27 333.075Z" fill="black"/>
<path d="M665.036 84.4863C664.261 84.4863 663.565 84.3516 662.948 84.0821C662.341 83.8014 661.864 83.4196 661.516 82.9368C661.168 82.4428 660.988 81.8758 660.977 81.2358H662.611C662.667 81.786 662.891 82.2519 663.284 82.6337C663.689 83.0042 664.273 83.1895 665.036 83.1895C665.766 83.1895 666.339 83.0098 666.754 82.6505C667.181 82.28 667.394 81.8084 667.394 81.2358C667.394 80.7867 667.27 80.4217 667.023 80.141C666.776 79.8603 666.468 79.647 666.097 79.501C665.727 79.3551 665.227 79.1979 664.598 79.0295C663.823 78.8274 663.2 78.6252 662.729 78.4231C662.268 78.221 661.87 77.9067 661.533 77.48C661.207 77.0421 661.044 76.4582 661.044 75.7284C661.044 75.0884 661.207 74.5214 661.533 74.0274C661.859 73.5333 662.313 73.1516 662.897 72.8821C663.492 72.6126 664.171 72.4779 664.935 72.4779C666.035 72.4779 666.934 72.753 667.63 73.3031C668.337 73.8533 668.736 74.5831 668.826 75.4926H667.141C667.085 75.0435 666.849 74.6505 666.434 74.3137C666.019 73.9656 665.468 73.7916 664.783 73.7916C664.143 73.7916 663.621 73.96 663.217 74.2968C662.813 74.6224 662.611 75.0828 662.611 75.6779C662.611 76.1045 662.729 76.4526 662.964 76.7221C663.211 76.9916 663.509 77.1993 663.857 77.3452C664.216 77.48 664.716 77.6372 665.356 77.8168C666.131 78.0302 666.754 78.2435 667.226 78.4568C667.697 78.6589 668.101 78.9789 668.438 79.4168C668.775 79.8435 668.943 80.4274 668.943 81.1684C668.943 81.741 668.792 82.28 668.489 82.7853C668.186 83.2905 667.736 83.7003 667.141 84.0147C666.546 84.3291 665.844 84.4863 665.036 84.4863ZM676.268 84.4863C675.179 84.4863 674.185 84.2337 673.287 83.7284C672.389 83.2119 671.676 82.4989 671.148 81.5895C670.632 80.6688 670.374 79.6358 670.374 78.4905C670.374 77.3452 670.632 76.3179 671.148 75.4084C671.676 74.4877 672.389 73.7747 673.287 73.2695C674.185 72.753 675.179 72.4947 676.268 72.4947C677.369 72.4947 678.368 72.753 679.266 73.2695C680.164 73.7747 680.872 74.4821 681.388 75.3916C681.905 76.301 682.163 77.334 682.163 78.4905C682.163 79.647 681.905 80.68 681.388 81.5895C680.872 82.4989 680.164 83.2119 679.266 83.7284C678.368 84.2337 677.369 84.4863 676.268 84.4863ZM676.268 83.1558C677.088 83.1558 677.823 82.9649 678.475 82.5831C679.137 82.2014 679.654 81.6568 680.024 80.9495C680.406 80.2421 680.597 79.4224 680.597 78.4905C680.597 77.5474 680.406 76.7277 680.024 76.0316C679.654 75.3242 679.143 74.7796 678.491 74.3979C677.84 74.0161 677.099 73.8252 676.268 73.8252C675.437 73.8252 674.696 74.0161 674.045 74.3979C673.394 74.7796 672.877 75.3242 672.496 76.0316C672.125 76.7277 671.94 77.5474 671.94 78.4905C671.94 79.4224 672.125 80.2421 672.496 80.9495C672.877 81.6568 673.394 82.2014 674.045 82.5831C674.708 82.9649 675.449 83.1558 676.268 83.1558ZM695.841 72.7137V84.3684H694.308V75.6779L690.435 84.3684H689.357L685.466 75.661V84.3684H683.934V72.7137H685.584L689.896 82.3474L694.207 72.7137H695.841ZM703.51 84.4863C702.421 84.4863 701.427 84.2337 700.529 83.7284C699.63 83.2119 698.917 82.4989 698.39 81.5895C697.873 80.6688 697.615 79.6358 697.615 78.4905C697.615 77.3452 697.873 76.3179 698.39 75.4084C698.917 74.4877 699.63 73.7747 700.529 73.2695C701.427 72.753 702.421 72.4947 703.51 72.4947C704.61 72.4947 705.609 72.753 706.508 73.2695C707.406 73.7747 708.113 74.4821 708.63 75.3916C709.146 76.301 709.404 77.334 709.404 78.4905C709.404 79.647 709.146 80.68 708.63 81.5895C708.113 82.4989 707.406 83.2119 706.508 83.7284C705.609 84.2337 704.61 84.4863 703.51 84.4863ZM703.51 83.1558C704.329 83.1558 705.065 82.9649 705.716 82.5831C706.379 82.2014 706.895 81.6568 707.266 80.9495C707.647 80.2421 707.838 79.4224 707.838 78.4905C707.838 77.5474 707.647 76.7277 707.266 76.0316C706.895 75.3242 706.384 74.7796 705.733 74.3979C705.082 74.0161 704.341 73.8252 703.51 73.8252C702.679 73.8252 701.938 74.0161 701.287 74.3979C700.635 74.7796 700.119 75.3242 699.737 76.0316C699.367 76.7277 699.181 77.5474 699.181 78.4905C699.181 79.4224 699.367 80.2421 699.737 80.9495C700.119 81.6568 700.635 82.2014 701.287 82.5831C701.949 82.9649 702.69 83.1558 703.51 83.1558ZM714.897 84.4863C714.123 84.4863 713.426 84.3516 712.809 84.0821C712.203 83.8014 711.725 83.4196 711.377 82.9368C711.029 82.4428 710.85 81.8758 710.838 81.2358H712.472C712.528 81.786 712.753 82.2519 713.146 82.6337C713.55 83.0042 714.134 83.1895 714.897 83.1895C715.627 83.1895 716.2 83.0098 716.615 82.6505C717.042 82.28 717.255 81.8084 717.255 81.2358C717.255 80.7867 717.132 80.4217 716.885 80.141C716.638 79.8603 716.329 79.647 715.958 79.501C715.588 79.3551 715.088 79.1979 714.459 79.0295C713.685 78.8274 713.061 78.6252 712.59 78.4231C712.13 78.221 711.731 77.9067 711.394 77.48C711.068 77.0421 710.906 76.4582 710.906 75.7284C710.906 75.0884 711.068 74.5214 711.394 74.0274C711.72 73.5333 712.174 73.1516 712.758 72.8821C713.353 72.6126 714.033 72.4779 714.796 72.4779C715.897 72.4779 716.795 72.753 717.491 73.3031C718.198 73.8533 718.597 74.5831 718.687 75.4926H717.003C716.946 75.0435 716.711 74.6505 716.295 74.3137C715.88 73.9656 715.33 73.7916 714.645 73.7916C714.005 73.7916 713.483 73.96 713.078 74.2968C712.674 74.6224 712.472 75.0828 712.472 75.6779C712.472 76.1045 712.59 76.4526 712.826 76.7221C713.073 76.9916 713.37 77.1993 713.718 77.3452C714.078 77.48 714.577 77.6372 715.217 77.8168C715.992 78.0302 716.615 78.2435 717.087 78.4568C717.558 78.6589 717.963 78.9789 718.299 79.4168C718.636 79.8435 718.805 80.4274 718.805 81.1684C718.805 81.741 718.653 82.28 718.35 82.7853C718.047 83.2905 717.598 83.7003 717.003 84.0147C716.407 84.3291 715.706 84.4863 714.897 84.4863ZM736.952 72.7137V84.3684H735.42V75.6779L731.546 84.3684H730.468L726.578 75.661V84.3684H725.045V72.7137H726.695L731.007 82.3474L735.319 72.7137H736.952ZM746.238 81.7579H741.118L740.175 84.3684H738.558L742.802 72.6968H744.57L748.798 84.3684H747.181L746.238 81.7579ZM745.8 80.5116L743.678 74.5831L741.556 80.5116H745.8ZM754.117 84.4863C753.342 84.4863 752.646 84.3516 752.029 84.0821C751.422 83.8014 750.945 83.4196 750.597 82.9368C750.249 82.4428 750.069 81.8758 750.058 81.2358H751.692C751.748 81.786 751.972 82.2519 752.365 82.6337C752.77 83.0042 753.353 83.1895 754.117 83.1895C754.847 83.1895 755.419 83.0098 755.835 82.6505C756.262 82.28 756.475 81.8084 756.475 81.2358C756.475 80.7867 756.351 80.4217 756.104 80.141C755.857 79.8603 755.549 79.647 755.178 79.501C754.808 79.3551 754.308 79.1979 753.679 79.0295C752.904 78.8274 752.281 78.6252 751.81 78.4231C751.349 78.221 750.951 77.9067 750.614 77.48C750.288 77.0421 750.125 76.4582 750.125 75.7284C750.125 75.0884 750.288 74.5214 750.614 74.0274C750.939 73.5333 751.394 73.1516 751.978 72.8821C752.573 72.6126 753.252 72.4779 754.016 72.4779C755.116 72.4779 756.015 72.753 756.711 73.3031C757.418 73.8533 757.817 74.5831 757.906 75.4926H756.222C756.166 75.0435 755.93 74.6505 755.515 74.3137C755.099 73.9656 754.549 73.7916 753.864 73.7916C753.224 73.7916 752.702 73.96 752.298 74.2968C751.894 74.6224 751.692 75.0828 751.692 75.6779C751.692 76.1045 751.81 76.4526 752.045 76.7221C752.292 76.9916 752.59 77.1993 752.938 77.3452C753.297 77.48 753.797 77.6372 754.437 77.8168C755.212 78.0302 755.835 78.2435 756.306 78.4568C756.778 78.6589 757.182 78.9789 757.519 79.4168C757.856 79.8435 758.024 80.4274 758.024 81.1684C758.024 81.741 757.873 82.28 757.57 82.7853C757.266 83.2905 756.817 83.7003 756.222 84.0147C755.627 84.3291 754.925 84.4863 754.117 84.4863Z" fill="black"/>
<rect x="695.79" y="41.9474" width="27.7895" height="27.7895" fill="#FAFF00"/>
<path d="M679.579 41.9474L695.623 69.7369H663.535L679.579 41.9474Z" fill="#FF0000"/>
<circle cx="737.684" cy="55.8422" r="13.8947" fill="#0038FF"/>
<line x1="746.796" y1="38.7847" x2="760.48" y2="69.311" stroke="white" stroke-width="1.05263"/>
</svg>
